<svg xmlns="http://www.w3.org/2000/svg" xmlns:xlink="http://www.w3.org/1999/xlink" xmlns:lucid="lucid" width="2462" height="1089"><g transform="translate(-822 -459)" lucid:page-tab-id="rPhYIvJTR5P5"><path d="M0 0h3824.45v2016H0z" fill="#fff"/><path d="M924.62 602.05a8 8 0 0 1 8-8h666.05a8 8 0 0 1 8 8v833.8a8 8 0 0 1-8 8H932.62a8 8 0 0 1-8-8z" stroke="#333" fill="#4d9eff"/><use xlink:href="#a" transform="matrix(1,0,0,1,955.620661853638,625.0457350192241) translate(27.783700315212002 47.435068050812085)"/><use xlink:href="#b" transform="matrix(1,0,0,1,955.620661853638,625.0457350192241) translate(214.88869096008187 47.435068050812085)"/><use xlink:href="#c" transform="matrix(1,0,0,1,955.620661853638,625.0457350192241) translate(356.37036962552486 47.435068050812085)"/><path d="M2681.16 602.05a8 8 0 0 1 8-8h508.45a8 8 0 0 1 8 8v234a8 8 0 0 1-8 8h-508.43a8 8 0 0 1-8-8z" stroke="#333" fill="#50bfdb"/><use xlink:href="#d" transform="matrix(1,0,0,1,2689.1652987283933,602.0457350192241) translate(29.293230156908407 98.55302909135085)"/><use xlink:href="#e" transform="matrix(1,0,0,1,2689.1652987283933,602.0457350192241) translate(180.32780447147326 98.55302909135085)"/><use xlink:href="#f" transform="matrix(1,0,0,1,2689.1652987283933,602.0457350192241) translate(344.17277525037775 98.55302909135085)"/><use xlink:href="#g" transform="matrix(1,0,0,1,2689.1652987283933,602.0457350192241) translate(190.5120696606233 153.8939418172983)"/><path d="M1689.56 602.05a8 8 0 0 1 8-8h712.05a8 8 0 0 1 8 8v833.8a8 8 0 0 1-8 8h-712.04a8 8 0 0 1-8-8z" stroke="#333" fill="#6f9cdc"/><use xlink:href="#a" transform="matrix(1,0,0,1,1720.5576791126396,625.0457350192241) translate(31.019088627373662 55.9875903436656)"/><use xlink:href="#h" transform="matrix(1,0,0,1,1720.5576791126396,625.0457350192241) translate(218.12407927224353 55.9875903436656)"/><use xlink:href="#i" transform="matrix(1,0,0,1,1720.5576791126396,625.0457350192241) translate(399.13498131336326 55.9875903436656)"/><use xlink:href="#j" transform="matrix(1,0,0,1,1720.5576791126396,625.0457350192241) translate(205.74910523116233 120.86585438108763)"/><use xlink:href="#k" transform="matrix(1,0,0,1,1720.5576791126396,625.0457350192241) translate(369.2958647497645 120.86585438108763)"/><path d="M1852.64 1107.66a8 8 0 0 1 8-8h481.88a8 8 0 0 1 8 8v153a8 8 0 0 1-8 8h-481.88a8 8 0 0 1-8-8z" stroke="#333" fill="#fff"/><path d="M1852.64 1211.66h497.88" stroke="#333" fill="none"/><use xlink:href="#l" transform="matrix(1,0,0,1,1860.6417347969493,1107.6588238695817) translate(11.5 32)"/><use xlink:href="#m" transform="matrix(1,0,0,1,1860.6417347969493,1107.6588238695817) translate(129.16666666666669 32)"/><use xlink:href="#n" transform="matrix(1,0,0,1,1860.6417347969493,1107.6588238695817) translate(200.05555555555557 32)"/><use xlink:href="#o" transform="matrix(1,0,0,1,1860.6417347969493,1107.6588238695817) translate(328.72222222222223 32)"/><use xlink:href="#p" transform="matrix(1,0,0,1,1860.6417347969493,1107.6588238695817) translate(410.72222222222223 32)"/><use xlink:href="#q" transform="matrix(1,0,0,1,1860.6417347969493,1107.6588238695817) translate(140.11111111111111 80)"/><use xlink:href="#r" transform="matrix(1,0,0,1,1860.6417347969493,1107.6588238695817) translate(211 80)"/><use xlink:href="#s" transform="matrix(1,0,0,1,1864.6417347969493,1219.6588238695817) translate(10.915362957031086 27.304382103084315)"/><use xlink:href="#t" transform="matrix(1,0,0,1,1864.6417347969493,1219.6588238695817) translate(34.02191051542157 27.304382103084315)"/><use xlink:href="#u" transform="matrix(1,0,0,1,1864.6417347969493,1219.6588238695817) translate(247.1313777717428 27.304382103084315)"/><path d="M1840.64 896.3a8 8 0 0 1 8-8h481.88a8 8 0 0 1 8 8v105a8 8 0 0 1-8 8h-481.88a8 8 0 0 1-8-8z" stroke="#333" fill="#fff"/><path d="M1840.64 952.3h497.88" stroke="#333" fill="none"/><use xlink:href="#v" transform="matrix(1,0,0,1,1848.6417347969493,896.2938147844145) translate(74.83333333333331 32)"/><use xlink:href="#w" transform="matrix(1,0,0,1,1848.6417347969493,896.2938147844145) translate(152.49999999999997 32)"/><use xlink:href="#x" transform="matrix(1,0,0,1,1852.6417347969493,960.2938147844145) translate(10.915362957031086 27.304382103084315)"/><use xlink:href="#y" transform="matrix(1,0,0,1,1852.6417347969493,960.2938147844145) translate(34.02191051542157 27.304382103084315)"/><use xlink:href="#u" transform="matrix(1,0,0,1,1852.6417347969493,960.2938147844145) translate(232.19953926775224 27.304382103084315)"/><path d="M1664.2 1018.95h-32.17" stroke="#242424" stroke-width="5" fill="none"/><path d="M1680.97 1018.95l-14.27 4.63v-9.27zM1615.26 1018.95l14.27-4.64v9.28z" stroke="#242424" stroke-width="5" fill="#242424"/><path d="M2485.33 1020.92h-65.22v-3.95h65.23zm402.2-25.9l-.3 4-.96 3.96-1.56 3.76-2.12 3.48-2.64 3.1-3.1 2.65-3.48 2.13-3.77 1.56-3.97.95-4 .32H2734.5v-3.95h127l3.53-.27 3.37-.8 3.2-1.33 2.94-1.8 2.63-2.25 2.25-2.63 1.8-2.96 1.32-3.2.8-3.35.3-3.53-.04-131.33h3.95z" stroke="#3a414a" stroke-width=".05" fill="#3a414a"/><path d="M2420.16 1020.92h-2.05v-3.95h2.06z" fill="#3a414a"/><path stroke="#3a414a" stroke-width=".05" fill="#3a414a"/><path d="M2893.04 861.53h-15l7.5-12.98z" fill="#3a414a"/><path d="M2896.46 863.5h-21.84l10.92-18.9zm-15-3.94h8.16l-4.08-7.06z" stroke="#3a414a" stroke-width=".05" fill="#3a414a"/><g><use xlink:href="#z" transform="matrix(1,0,0,1,2485.3276648660312,969.9553779452963) translate(36.238334698923964 32.6610340948047)"/><use xlink:href="#A" transform="matrix(1,0,0,1,2485.3276648660312,969.9553779452963) translate(47.57897153739782 32.6610340948047)"/><use xlink:href="#B" transform="matrix(1,0,0,1,2485.3276648660312,969.9553779452963) translate(144.8816356115035 32.6610340948047)"/><use xlink:href="#C" transform="matrix(1,0,0,1,2485.3276648660312,969.9553779452963) translate(0.0049999999999954525 81.65258523701175)"/><use xlink:href="#D" transform="matrix(1,0,0,1,2485.3276648660312,969.9553779452963) translate(70.20354203015316 81.65258523701175)"/><use xlink:href="#E" transform="matrix(1,0,0,1,2485.3276648660312,969.9553779452963) translate(138.2473630609963 81.65258523701175)"/></g><path d="M2606.8 1156.12h-165.96v-3.95h165.97zm338.56-25.9l-.3 4-.96 3.95-1.56 3.77-2.13 3.47-2.64 3.12-3.1 2.64-3.48 2.13-3.76 1.55-3.97.96-3.98.32h-45.6v-3.95h45.44l3.53-.28 3.36-.82 3.18-1.32 2.95-1.8 2.63-2.25 2.24-2.6 1.8-2.96 1.33-3.2.8-3.35.28-3.53V846.55h3.96z" stroke="#3a414a" stroke-width=".05" fill="#3a414a"/><path d="M2438.84 1158.78l-14.26-4.64 14.26-4.63z" fill="#3a414a"/><path d="M2440.82 1161.5l-22.63-7.36 22.62-7.35zm-9.85-7.36l5.9 1.92v-3.83z" stroke="#3a414a" stroke-width=".05" fill="#3a414a"/><path d="M2945.36 846.6h-3.95v-2.05h3.96z" fill="#3a414a"/><path stroke="#3a414a" stroke-width=".05" fill="#3a414a"/><g><use xlink:href="#F" transform="matrix(1,0,0,1,2606.8057294391456,1129.6482705866329) translate(0.0049999999999954525 32.6610340948047)"/><use xlink:href="#G" transform="matrix(1,0,0,1,2606.8057294391456,1129.6482705866329) translate(147.09305979500587 32.6610340948047)"/></g><path d="M1027.26 929.66a8 8 0 0 1 8-8h481.88a8 8 0 0 1 8 8v162a8 8 0 0 1-8 8h-481.88a8 8 0 0 1-8-8z" stroke="#333" fill="#fff"/><path d="M1027.26 985.66h497.88" stroke="#333" fill="none"/><g><use xlink:href="#H" transform="matrix(1,0,0,1,1035.2607767977754,929.6588238695817) translate(119.1111111111111 32)"/><use xlink:href="#I" transform="matrix(1,0,0,1,1035.2607767977754,929.6588238695817) translate(245.44444444444446 32)"/></g><g><use xlink:href="#x" transform="matrix(1,0,0,1,1039.2607767977754,993.6588238695817) translate(10.915362957031086 35.89123579383137)"/><use xlink:href="#J" transform="matrix(1,0,0,1,1039.2607767977754,993.6588238695817) translate(34.02191051542157 35.89123579383137)"/><use xlink:href="#K" transform="matrix(1,0,0,1,1039.2607767977754,993.6588238695817) translate(192.69632094706827 35.89123579383137)"/><use xlink:href="#L" transform="matrix(1,0,0,1,1039.2607767977754,993.6588238695817) translate(262.4412375036825 35.89123579383137)"/><use xlink:href="#M" transform="matrix(1,0,0,1,1039.2607767977754,993.6588238695817) translate(338.0454830935082 35.89123579383137)"/><use xlink:href="#N" transform="matrix(1,0,0,1,1039.2607767977754,993.6588238695817) translate(415.350824209105 35.89123579383137)"/><use xlink:href="#O" transform="matrix(1,0,0,1,1039.2607767977754,993.6588238695817) translate(34.02191051542157 76.71752841233726)"/></g><defs><path fill="#fff" d="M76-208v77h127v40H76V0H24v-248h183v40H76" id="P"/><path fill="#fff" d="M240-174c0 40-23 61-54 70L253 0h-59l-57-94H76V0H24v-248c93 4 217-23 216 74zM76-134c48-2 112 12 112-38 0-48-66-32-112-35v73" id="Q"/><path fill="#fff" d="M199 0l-22-63H83L61 0H9l90-248h61L250 0h-51zm-33-102l-36-108c-10 38-24 72-36 108h72" id="R"/><path fill="#fff" d="M230 0l2-204L168 0h-37L68-204 70 0H24v-248h70l56 185 57-185h69V0h-46" id="S"/><g id="a"><use transform="matrix(0.16470509739865308,0,0,0.16470509739865308,0,0)" xlink:href="#P"/><use transform="matrix(0.16470509739865308,0,0,0.16470509739865308,36.07041633030502,0)" xlink:href="#Q"/><use transform="matrix(0.16470509739865308,0,0,0.16470509739865308,78.72903655655617,0)" xlink:href="#R"/><use transform="matrix(0.16470509739865308,0,0,0.16470509739865308,121.38765678280731,0)" xlink:href="#S"/></g><path fill="#fff" d="M190-63c-7 42-38 67-86 67-59 0-84-38-90-98-12-110 154-137 174-36l-49 2c-2-19-15-32-35-32-30 0-35 28-38 64-6 74 65 87 74 30" id="T"/><path fill="#fff" d="M110-194c64 0 96 36 96 99 0 64-35 99-97 99-61 0-95-36-95-99 0-62 34-99 96-99zm-1 164c35 0 45-28 45-65 0-40-10-65-43-65-34 0-45 26-45 65 0 36 10 65 43 65" id="U"/><path fill="#fff" d="M135-150c-39-12-60 13-60 57V0H25l-1-190h47c2 13-1 29 3 40 6-28 27-53 61-41v41" id="V"/><path fill="#fff" d="M185-48c-13 30-37 53-82 52C43 2 14-33 14-96s30-98 90-98c62 0 83 45 84 108H66c0 31 8 55 39 56 18 0 30-7 34-22zm-45-69c5-46-57-63-70-21-2 6-4 13-4 21h74" id="W"/><g id="b"><use transform="matrix(0.16470509739865308,0,0,0.16470509739865308,0,0)" xlink:href="#T"/><use transform="matrix(0.16470509739865308,0,0,0.16470509739865308,32.94101947973061,0)" xlink:href="#U"/><use transform="matrix(0.16470509739865308,0,0,0.16470509739865308,69.01143581003564,0)" xlink:href="#V"/><use transform="matrix(0.16470509739865308,0,0,0.16470509739865308,92.07014944584706,0)" xlink:href="#W"/></g><path fill="#fff" d="M135-194c53 0 70 44 70 98 0 56-19 98-73 100-31 1-45-17-59-34 3 33 2 69 2 105H25l-1-265h48c2 10 0 23 3 31 11-24 29-35 60-35zM114-30c33 0 39-31 40-66 0-38-9-64-40-64-56 0-55 130 0 130" id="X"/><path fill="#fff" d="M133-34C117-15 103 5 69 4 32 3 11-16 11-54c-1-60 55-63 116-61 1-26-3-47-28-47-18 1-26 9-28 27l-52-2c7-38 36-58 82-57s74 22 75 68l1 82c-1 14 12 18 25 15v27c-30 8-71 5-69-32zm-48 3c29 0 43-24 42-57-32 0-66-3-65 30 0 17 8 27 23 27" id="Y"/><path fill="#fff" d="M147 0L96-86 75-71V0H25v-261h50v150l67-79h53l-66 74L201 0h-54" id="Z"/><path fill="#fff" d="M195-6C206 82 75 100 31 46c-4-6-6-13-8-21l49-6c3 16 16 24 34 25 40 0 42-37 40-79-11 22-30 35-61 35-53 0-70-43-70-97 0-56 18-96 73-97 30 0 46 14 59 34l2-30h47zm-90-29c32 0 41-27 41-63 0-35-9-62-40-62-32 0-39 29-40 63 0 36 9 62 39 62" id="aa"/><g id="c"><use transform="matrix(0.16470509739865308,0,0,0.16470509739865308,0,0)" xlink:href="#X"/><use transform="matrix(0.16470509739865308,0,0,0.16470509739865308,36.07041633030502,0)" xlink:href="#Y"/><use transform="matrix(0.16470509739865308,0,0,0.16470509739865308,69.01143581003564,0)" xlink:href="#T"/><use transform="matrix(0.16470509739865308,0,0,0.16470509739865308,101.95245528976625,0)" xlink:href="#Z"/><use transform="matrix(0.16470509739865308,0,0,0.16470509739865308,134.89347476949686,0)" xlink:href="#Y"/><use transform="matrix(0.16470509739865308,0,0,0.16470509739865308,167.83449424922748,0)" xlink:href="#aa"/><use transform="matrix(0.16470509739865308,0,0,0.16470509739865308,203.9049105795325,0)" xlink:href="#W"/></g><path fill="#212529" d="M24-248c93 1 206-16 204 79-1 75-69 88-152 82V0H24v-248zm52 121c47 0 100 7 100-41 0-47-54-39-100-39v80" id="ab"/><path fill="#212529" d="M110-194c64 0 96 36 96 99 0 64-35 99-97 99-61 0-95-36-95-99 0-62 34-99 96-99zm-1 164c35 0 45-28 45-65 0-40-10-65-43-65-34 0-45 26-45 65 0 36 10 65 43 65" id="ac"/><path fill="#212529" d="M231 0h-52l-39-155L100 0H48L-1-190h46L77-45c9-52 24-97 36-145h53l37 145 32-145h46" id="ad"/><path fill="#212529" d="M185-48c-13 30-37 53-82 52C43 2 14-33 14-96s30-98 90-98c62 0 83 45 84 108H66c0 31 8 55 39 56 18 0 30-7 34-22zm-45-69c5-46-57-63-70-21-2 6-4 13-4 21h74" id="ae"/><path fill="#212529" d="M135-150c-39-12-60 13-60 57V0H25l-1-190h47c2 13-1 29 3 40 6-28 27-53 61-41v41" id="af"/><g id="d"><use transform="matrix(0.12810396464339682,0,0,0.12810396464339682,0,0)" xlink:href="#ab"/><use transform="matrix(0.12810396464339682,0,0,0.12810396464339682,30.744951514415238,0)" xlink:href="#ac"/><use transform="matrix(0.12810396464339682,0,0,0.12810396464339682,58.79971977131915,0)" xlink:href="#ad"/><use transform="matrix(0.12810396464339682,0,0,0.12810396464339682,94.66882987147025,0)" xlink:href="#ae"/><use transform="matrix(0.12810396464339682,0,0,0.12810396464339682,120.28962280014962,0)" xlink:href="#af"/></g><path fill="#212529" d="M220-157c-53 9-28 100-34 157h-49v-107c1-27-5-49-29-50C55-147 81-57 75 0H25l-1-190h47c2 12-1 28 3 38 10-53 101-56 108 0 13-22 24-43 59-42 82 1 51 116 57 194h-49v-107c-1-25-5-48-29-50" id="ag"/><path fill="#212529" d="M133-34C117-15 103 5 69 4 32 3 11-16 11-54c-1-60 55-63 116-61 1-26-3-47-28-47-18 1-26 9-28 27l-52-2c7-38 36-58 82-57s74 22 75 68l1 82c-1 14 12 18 25 15v27c-30 8-71 5-69-32zm-48 3c29 0 43-24 42-57-32 0-66-3-65 30 0 17 8 27 23 27" id="ah"/><path fill="#212529" d="M147 0L96-86 75-71V0H25v-261h50v150l67-79h53l-66 74L201 0h-54" id="ai"/><path fill="#212529" d="M115-3C79 11 28 4 28-45v-112H4v-33h27l15-45h31v45h36v33H77v99c-1 23 16 31 38 25v30" id="aj"/><g id="e"><use transform="matrix(0.12810396464339682,0,0,0.12810396464339682,0,0)" xlink:href="#ag"/><use transform="matrix(0.12810396464339682,0,0,0.12810396464339682,40.99326868588698,0)" xlink:href="#ah"/><use transform="matrix(0.12810396464339682,0,0,0.12810396464339682,66.61406161456634,0)" xlink:href="#af"/><use transform="matrix(0.12810396464339682,0,0,0.12810396464339682,84.5486166646419,0)" xlink:href="#ai"/><use transform="matrix(0.12810396464339682,0,0,0.12810396464339682,110.16940959332126,0)" xlink:href="#ae"/><use transform="matrix(0.12810396464339682,0,0,0.12810396464339682,135.79020252200064,0)" xlink:href="#aj"/></g><path fill="#212529" d="M88-194c31-1 46 15 58 34l-1-101h50l1 261h-48c-2-10 0-23-3-31C134-8 116 4 84 4 32 4 16-41 15-95c0-56 19-97 73-99zm17 164c33 0 40-30 41-66 1-37-9-64-41-64s-38 30-39 65c0 43 13 65 39 65" id="ak"/><path fill="#212529" d="M25 0v-261h50V0H25" id="al"/><g id="f"><use transform="matrix(0.12810396464339682,0,0,0.12810396464339682,0,0)" xlink:href="#ag"/><use transform="matrix(0.12810396464339682,0,0,0.12810396464339682,40.99326868588698,0)" xlink:href="#ac"/><use transform="matrix(0.12810396464339682,0,0,0.12810396464339682,69.04803694279089,0)" xlink:href="#ak"/><use transform="matrix(0.12810396464339682,0,0,0.12810396464339682,97.10280519969479,0)" xlink:href="#ae"/><use transform="matrix(0.12810396464339682,0,0,0.12810396464339682,122.72359812837415,0)" xlink:href="#al"/></g><path fill="#212529" d="M176-78C186 10 51 31 16-35c-5-9-9-19-11-32l52-8c4 21 12 37 35 38 23 0 32-16 32-40v-130H75v-41h101v170" id="am"/><path fill="#212529" d="M85 4C-2 5 27-109 22-190h50c7 57-23 150 33 157 60-5 35-97 40-157h50l1 190h-47c-2-12 1-28-3-38-12 25-28 42-61 42" id="an"/><path fill="#212529" d="M24 0v-248h195v40H76v63h132v40H76v65h150V0H24" id="ao"/><path fill="#212529" d="M169-182c-1-43-94-46-97-3 18 66 151 10 154 114 3 95-165 93-204 36-6-8-10-19-12-30l50-8c3 46 112 56 116 5-17-69-150-10-154-114-4-87 153-88 188-35 5 8 8 18 10 28" id="ap"/><g id="g"><use transform="matrix(0.12810396464339682,0,0,0.12810396464339682,0,0)" xlink:href="#am"/><use transform="matrix(0.12810396464339682,0,0,0.12810396464339682,25.620792928679364,0)" xlink:href="#an"/><use transform="matrix(0.12810396464339682,0,0,0.12810396464339682,53.67556118558327,0)" xlink:href="#al"/><use transform="matrix(0.12810396464339682,0,0,0.12810396464339682,66.48595764992295,0)" xlink:href="#ao"/><use transform="matrix(0.12810396464339682,0,0,0.12810396464339682,97.23090916433819,0)" xlink:href="#ap"/></g><path fill="#fff" d="M176-78C186 10 51 31 16-35c-5-9-9-19-11-32l52-8c4 21 12 37 35 38 23 0 32-16 32-40v-130H75v-41h101v170" id="aq"/><path fill="#fff" d="M85 4C-2 5 27-109 22-190h50c7 57-23 150 33 157 60-5 35-97 40-157h50l1 190h-47c-2-12 1-28-3-38-12 25-28 42-61 42" id="ar"/><path fill="#fff" d="M25 0v-261h50V0H25" id="as"/><path fill="#fff" d="M24 0v-248h195v40H76v63h132v40H76v65h150V0H24" id="at"/><path fill="#fff" d="M169-182c-1-43-94-46-97-3 18 66 151 10 154 114 3 95-165 93-204 36-6-8-10-19-12-30l50-8c3 46 112 56 116 5-17-69-150-10-154-114-4-87 153-88 188-35 5 8 8 18 10 28" id="au"/><g id="h"><use transform="matrix(0.16470509739865308,0,0,0.16470509739865308,0,0)" xlink:href="#aq"/><use transform="matrix(0.16470509739865308,0,0,0.16470509739865308,32.94101947973061,0)" xlink:href="#ar"/><use transform="matrix(0.16470509739865308,0,0,0.16470509739865308,69.01143581003564,0)" xlink:href="#as"/><use transform="matrix(0.16470509739865308,0,0,0.16470509739865308,85.48194554990094,0)" xlink:href="#at"/><use transform="matrix(0.16470509739865308,0,0,0.16470509739865308,125.01116892557769,0)" xlink:href="#au"/></g><g id="i"><use transform="matrix(0.16470509739865308,0,0,0.16470509739865308,0,0)" xlink:href="#X"/><use transform="matrix(0.16470509739865308,0,0,0.16470509739865308,36.07041633030502,0)" xlink:href="#Y"/><use transform="matrix(0.16470509739865308,0,0,0.16470509739865308,69.01143581003564,0)" xlink:href="#T"/><use transform="matrix(0.16470509739865308,0,0,0.16470509739865308,101.95245528976625,0)" xlink:href="#Z"/><use transform="matrix(0.16470509739865308,0,0,0.16470509739865308,134.89347476949686,0)" xlink:href="#Y"/><use transform="matrix(0.16470509739865308,0,0,0.16470509739865308,167.83449424922748,0)" xlink:href="#aa"/><use transform="matrix(0.16470509739865308,0,0,0.16470509739865308,203.9049105795325,0)" xlink:href="#W"/></g><path fill="#fff" d="M67-93c0 74 22 123 53 168H70C40 30 18-18 18-93s22-123 52-168h50c-32 44-53 94-53 168" id="av"/><path fill="#fff" d="M220-157c-53 9-28 100-34 157h-49v-107c1-27-5-49-29-50C55-147 81-57 75 0H25l-1-190h47c2 12-1 28 3 38 10-53 101-56 108 0 13-22 24-43 59-42 82 1 51 116 57 194h-49v-107c-1-25-5-48-29-50" id="aw"/><path fill="#fff" d="M88-194c31-1 46 15 58 34l-1-101h50l1 261h-48c-2-10 0-23-3-31C134-8 116 4 84 4 32 4 16-41 15-95c0-56 19-97 73-99zm17 164c33 0 40-30 41-66 1-37-9-64-41-64s-38 30-39 65c0 43 13 65 39 65" id="ax"/><g id="j"><use transform="matrix(0.12807107244996258,0,0,0.12807107244996258,0,0)" xlink:href="#av"/><use transform="matrix(0.12807107244996258,0,0,0.12807107244996258,15.240457621545547,0)" xlink:href="#aw"/><use transform="matrix(0.12807107244996258,0,0,0.12807107244996258,56.223200805533565,0)" xlink:href="#U"/><use transform="matrix(0.12807107244996258,0,0,0.12807107244996258,84.27076567207537,0)" xlink:href="#ax"/><use transform="matrix(0.12807107244996258,0,0,0.12807107244996258,112.31833053861718,0)" xlink:href="#W"/><use transform="matrix(0.12807107244996258,0,0,0.12807107244996258,137.9325450286097,0)" xlink:href="#as"/></g><path fill="#fff" d="M24-248c93 1 206-16 204 79-1 75-69 88-152 82V0H24v-248zm52 121c47 0 100 7 100-41 0-47-54-39-100-39v80" id="ay"/><path fill="#fff" d="M24 0v-248h52V0H24" id="az"/><path fill="#fff" d="M102-93c0 74-22 123-52 168H0C30 29 54-18 53-93c0-74-22-123-53-168h50c30 45 52 94 52 168" id="aA"/><g id="k"><use transform="matrix(0.12807107244996258,0,0,0.12807107244996258,0,0)" xlink:href="#R"/><use transform="matrix(0.12807107244996258,0,0,0.12807107244996258,33.17040776454031,0)" xlink:href="#ay"/><use transform="matrix(0.12807107244996258,0,0,0.12807107244996258,63.90746515253133,0)" xlink:href="#az"/><use transform="matrix(0.12807107244996258,0,0,0.12807107244996258,76.7145723975276,0)" xlink:href="#aA"/></g><path fill="#242424" d="M169-182c-1-43-94-46-97-3 18 66 151 10 154 114 3 95-165 93-204 36-6-8-10-19-12-30l50-8c3 46 112 56 116 5-17-69-150-10-154-114-4-87 153-88 188-35 5 8 8 18 10 28" id="aB"/><path fill="#242424" d="M110-194c64 0 96 36 96 99 0 64-35 99-97 99-61 0-95-36-95-99 0-62 34-99 96-99zm-1 164c35 0 45-28 45-65 0-40-10-65-43-65-34 0-45 26-45 65 0 36 10 65 43 65" id="aC"/><path fill="#242424" d="M25 0v-261h50V0H25" id="aD"/><path fill="#242424" d="M128 0H69L1-190h53L99-40l48-150h52" id="aE"/><path fill="#242424" d="M185-48c-13 30-37 53-82 52C43 2 14-33 14-96s30-98 90-98c62 0 83 45 84 108H66c0 31 8 55 39 56 18 0 30-7 34-22zm-45-69c5-46-57-63-70-21-2 6-4 13-4 21h74" id="aF"/><g id="l"><use transform="matrix(0.1111111111111111,0,0,0.1111111111111111,0,0)" xlink:href="#aB"/><use transform="matrix(0.1111111111111111,0,0,0.1111111111111111,26.666666666666664,0)" xlink:href="#aC"/><use transform="matrix(0.1111111111111111,0,0,0.1111111111111111,51,0)" xlink:href="#aD"/><use transform="matrix(0.1111111111111111,0,0,0.1111111111111111,62.11111111111112,0)" xlink:href="#aE"/><use transform="matrix(0.1111111111111111,0,0,0.1111111111111111,84.33333333333334,0)" xlink:href="#aF"/></g><path fill="#242424" d="M115-3C79 11 28 4 28-45v-112H4v-33h27l15-45h31v45h36v33H77v99c-1 23 16 31 38 25v30" id="aG"/><path fill="#242424" d="M114-157C55-157 80-60 75 0H25v-261h50l-1 109c12-26 28-41 61-42 86-1 58 113 63 194h-50c-7-57 23-157-34-157" id="aH"/><g id="m"><use transform="matrix(0.1111111111111111,0,0,0.1111111111111111,0,0)" xlink:href="#aG"/><use transform="matrix(0.1111111111111111,0,0,0.1111111111111111,13.222222222222221,0)" xlink:href="#aH"/><use transform="matrix(0.1111111111111111,0,0,0.1111111111111111,37.55555555555556,0)" xlink:href="#aF"/></g><path fill="#242424" d="M220-157c-53 9-28 100-34 157h-49v-107c1-27-5-49-29-50C55-147 81-57 75 0H25l-1-190h47c2 12-1 28 3 38 10-53 101-56 108 0 13-22 24-43 59-42 82 1 51 116 57 194h-49v-107c-1-25-5-48-29-50" id="aI"/><path fill="#242424" d="M88-194c31-1 46 15 58 34l-1-101h50l1 261h-48c-2-10 0-23-3-31C134-8 116 4 84 4 32 4 16-41 15-95c0-56 19-97 73-99zm17 164c33 0 40-30 41-66 1-37-9-64-41-64s-38 30-39 65c0 43 13 65 39 65" id="aJ"/><g id="n"><use transform="matrix(0.1111111111111111,0,0,0.1111111111111111,0,0)" xlink:href="#aI"/><use transform="matrix(0.1111111111111111,0,0,0.1111111111111111,35.55555555555556,0)" xlink:href="#aC"/><use transform="matrix(0.1111111111111111,0,0,0.1111111111111111,59.888888888888886,0)" xlink:href="#aJ"/><use transform="matrix(0.1111111111111111,0,0,0.1111111111111111,84.22222222222221,0)" xlink:href="#aF"/><use transform="matrix(0.1111111111111111,0,0,0.1111111111111111,106.44444444444443,0)" xlink:href="#aD"/></g><path fill="#242424" d="M133-34C117-15 103 5 69 4 32 3 11-16 11-54c-1-60 55-63 116-61 1-26-3-47-28-47-18 1-26 9-28 27l-52-2c7-38 36-58 82-57s74 22 75 68l1 82c-1 14 12 18 25 15v27c-30 8-71 5-69-32zm-48 3c29 0 43-24 42-57-32 0-66-3-65 30 0 17 8 27 23 27" id="aK"/><path fill="#242424" d="M135-194c87-1 58 113 63 194h-50c-7-57 23-157-34-157-59 0-34 97-39 157H25l-1-190h47c2 12-1 28 3 38 12-26 28-41 61-42" id="aL"/><g id="o"><use transform="matrix(0.1111111111111111,0,0,0.1111111111111111,0,0)" xlink:href="#aK"/><use transform="matrix(0.1111111111111111,0,0,0.1111111111111111,22.22222222222222,0)" xlink:href="#aL"/><use transform="matrix(0.1111111111111111,0,0,0.1111111111111111,46.55555555555556,0)" xlink:href="#aJ"/></g><path fill="#242424" d="M195-6C206 82 75 100 31 46c-4-6-6-13-8-21l49-6c3 16 16 24 34 25 40 0 42-37 40-79-11 22-30 35-61 35-53 0-70-43-70-97 0-56 18-96 73-97 30 0 46 14 59 34l2-30h47zm-90-29c32 0 41-27 41-63 0-35-9-62-40-62-32 0-39 29-40 63 0 36 9 62 39 62" id="aM"/><g id="p"><use transform="matrix(0.1111111111111111,0,0,0.1111111111111111,0,0)" xlink:href="#aM"/><use transform="matrix(0.1111111111111111,0,0,0.1111111111111111,24.333333333333332,0)" xlink:href="#aF"/><use transform="matrix(0.1111111111111111,0,0,0.1111111111111111,46.55555555555556,0)" xlink:href="#aG"/></g><g id="q"><use transform="matrix(0.1111111111111111,0,0,0.1111111111111111,0,0)" xlink:href="#aG"/><use transform="matrix(0.1111111111111111,0,0,0.1111111111111111,13.222222222222221,0)" xlink:href="#aH"/><use transform="matrix(0.1111111111111111,0,0,0.1111111111111111,37.55555555555556,0)" xlink:href="#aF"/></g><path fill="#242424" d="M135-150c-39-12-60 13-60 57V0H25l-1-190h47c2 13-1 29 3 40 6-28 27-53 61-41v41" id="aN"/><path fill="#242424" d="M137-138c1-29-70-34-71-4 15 46 118 7 119 86 1 83-164 76-172 9l43-7c4 19 20 25 44 25 33 8 57-30 24-41C81-84 22-81 20-136c-2-80 154-74 161-7" id="aO"/><path fill="#242424" d="M85 4C-2 5 27-109 22-190h50c7 57-23 150 33 157 60-5 35-97 40-157h50l1 190h-47c-2-12 1-28-3-38-12 25-28 42-61 42" id="aP"/><g id="r"><use transform="matrix(0.1111111111111111,0,0,0.1111111111111111,0,0)" xlink:href="#aN"/><use transform="matrix(0.1111111111111111,0,0,0.1111111111111111,15.555555555555555,0)" xlink:href="#aF"/><use transform="matrix(0.1111111111111111,0,0,0.1111111111111111,37.77777777777778,0)" xlink:href="#aO"/><use transform="matrix(0.1111111111111111,0,0,0.1111111111111111,60,0)" xlink:href="#aP"/><use transform="matrix(0.1111111111111111,0,0,0.1111111111111111,84.33333333333333,0)" xlink:href="#aD"/><use transform="matrix(0.1111111111111111,0,0,0.1111111111111111,95.44444444444444,0)" xlink:href="#aG"/><use transform="matrix(0.1111111111111111,0,0,0.1111111111111111,108.66666666666666,0)" xlink:href="#aO"/></g><path fill="#242424" d="M18-113h94v29H18v-29" id="aQ"/><use transform="matrix(0.09450530698728213,0,0,0.09450530698728213,0,0)" xlink:href="#aQ" id="s"/><path fill="#242424" d="M33 0v-38h34V0H33" id="aR"/><path fill="#242424" d="M135-143c-3-34-86-38-87 0 15 53 115 12 119 90S17 21 10-45l28-5c4 36 97 45 98 0-10-56-113-15-118-90-4-57 82-63 122-42 12 7 21 19 24 35" id="aS"/><path fill="#242424" d="M100-194c62-1 85 37 85 99 1 63-27 99-86 99S16-35 15-95c0-66 28-99 85-99zM99-20c44 1 53-31 53-75 0-43-8-75-51-75s-53 32-53 75 10 74 51 75" id="aT"/><path fill="#242424" d="M24 0v-261h32V0H24" id="aU"/><path fill="#242424" d="M108 0H70L1-190h34L89-25l56-165h34" id="aV"/><path fill="#242424" d="M100-194c63 0 86 42 84 106H49c0 40 14 67 53 68 26 1 43-12 49-29l28 8c-11 28-37 45-77 45C44 4 14-33 15-96c1-61 26-98 85-98zm52 81c6-60-76-77-97-28-3 7-6 17-6 28h103" id="aW"/><path fill="#242424" d="M87 75C49 33 22-17 22-94c0-76 28-126 65-167h31c-38 41-64 92-64 168S80 34 118 75H87" id="aX"/><path fill="#242424" d="M240 0l2-218c-23 76-54 145-80 218h-23L58-218 59 0H30v-248h44l77 211c21-75 51-140 76-211h43V0h-30" id="aY"/><path fill="#242424" d="M85-194c31 0 48 13 60 33l-1-100h32l1 261h-30c-2-10 0-23-3-31C134-8 116 4 85 4 32 4 16-35 15-94c0-66 23-100 70-100zm9 24c-40 0-46 34-46 75 0 40 6 74 45 74 42 0 51-32 51-76 0-42-9-74-50-73" id="aZ"/><path fill="#242424" d="M33-261c38 41 65 92 65 168S71 34 33 75H2C39 34 66-17 66-93S39-220 2-261h31" id="ba"/><g id="t"><use transform="matrix(0.09450530698728213,0,0,0.09450530698728213,0,0)" xlink:href="#aR"/><use transform="matrix(0.09450530698728213,0,0,0.09450530698728213,9.450530698728214,0)" xlink:href="#aS"/><use transform="matrix(0.09450530698728213,0,0,0.09450530698728213,26.461485956439002,0)" xlink:href="#aT"/><use transform="matrix(0.09450530698728213,0,0,0.09450530698728213,45.36254735389542,0)" xlink:href="#aU"/><use transform="matrix(0.09450530698728213,0,0,0.09450530698728213,52.82846660589071,0)" xlink:href="#aV"/><use transform="matrix(0.09450530698728213,0,0,0.09450530698728213,69.8394218636015,0)" xlink:href="#aW"/><use transform="matrix(0.09450530698728213,0,0,0.09450530698728213,88.74048326105793,0)" xlink:href="#aX"/><use transform="matrix(0.09450530698728213,0,0,0.09450530698728213,99.98661479254449,0)" xlink:href="#aY"/><use transform="matrix(0.09450530698728213,0,0,0.09450530698728213,128.24370158174185,0)" xlink:href="#aT"/><use transform="matrix(0.09450530698728213,0,0,0.09450530698728213,147.14476297919828,0)" xlink:href="#aZ"/><use transform="matrix(0.09450530698728213,0,0,0.09450530698728213,166.0458243766547,0)" xlink:href="#aW"/><use transform="matrix(0.09450530698728213,0,0,0.09450530698728213,184.94688577411114,0)" xlink:href="#aU"/><use transform="matrix(0.09450530698728213,0,0,0.09450530698728213,192.4128050261064,0)" xlink:href="#ba"/></g><path fill="#242424" d="M210-169c-67 3-38 105-44 169h-31v-121c0-29-5-50-35-48C34-165 62-65 56 0H25l-1-190h30c1 10-1 24 2 32 10-44 99-50 107 0 11-21 27-35 58-36 85-2 47 119 55 194h-31v-121c0-29-5-49-35-48" id="bb"/><path fill="#242424" d="M59-47c-2 24 18 29 38 22v24C64 9 27 4 27-40v-127H5v-23h24l9-43h21v43h35v23H59v120" id="bc"/><path fill="#242424" d="M106-169C34-169 62-67 57 0H25v-261h32l-1 103c12-21 28-36 61-36 89 0 53 116 60 194h-32v-121c2-32-8-49-39-48" id="bd"/><g id="u"><use transform="matrix(0.09450530698728213,0,0,0.09450530698728213,0,0)" xlink:href="#bb"/><use transform="matrix(0.09450530698728213,0,0,0.09450530698728213,28.257086789197356,0)" xlink:href="#aW"/><use transform="matrix(0.09450530698728213,0,0,0.09450530698728213,47.15814818665378,0)" xlink:href="#bc"/><use transform="matrix(0.09450530698728213,0,0,0.09450530698728213,56.608678885382,0)" xlink:href="#bd"/><use transform="matrix(0.09450530698728213,0,0,0.09450530698728213,75.50974028283842,0)" xlink:href="#aT"/><use transform="matrix(0.09450530698728213,0,0,0.09450530698728213,94.41080168029485,0)" xlink:href="#aZ"/></g><path fill="#242424" d="M67-125c0 54 23 88 75 88 28 0 53-7 68-21v-34h-60v-39h108v91C232-14 192 4 140 4 58 4 20-42 15-125 8-236 126-280 215-234c19 10 29 26 37 47l-47 15c-11-23-29-39-63-39-53 1-75 33-75 86" id="be"/><g id="v"><use transform="matrix(0.1111111111111111,0,0,0.1111111111111111,0,0)" xlink:href="#be"/><use transform="matrix(0.1111111111111111,0,0,0.1111111111111111,31.11111111111111,0)" xlink:href="#aF"/><use transform="matrix(0.1111111111111111,0,0,0.1111111111111111,53.33333333333333,0)" xlink:href="#aG"/></g><path fill="#242424" d="M190-63c-7 42-38 67-86 67-59 0-84-38-90-98-12-110 154-137 174-36l-49 2c-2-19-15-32-35-32-30 0-35 28-38 64-6 74 65 87 74 30" id="bf"/><path fill="#242424" d="M121-226c-27-7-43 5-38 36h38v33H83V0H34v-157H6v-33h28c-9-59 32-81 87-68v32" id="bg"/><path fill="#242424" d="M25-224v-37h50v37H25zM25 0v-190h50V0H25" id="bh"/><g id="w"><use transform="matrix(0.1111111111111111,0,0,0.1111111111111111,0,0)" xlink:href="#bf"/><use transform="matrix(0.1111111111111111,0,0,0.1111111111111111,22.22222222222222,0)" xlink:href="#aC"/><use transform="matrix(0.1111111111111111,0,0,0.1111111111111111,46.55555555555556,0)" xlink:href="#aL"/><use transform="matrix(0.1111111111111111,0,0,0.1111111111111111,70.88888888888889,0)" xlink:href="#bg"/><use transform="matrix(0.1111111111111111,0,0,0.1111111111111111,84.11111111111111,0)" xlink:href="#bh"/><use transform="matrix(0.1111111111111111,0,0,0.1111111111111111,95.22222222222223,0)" xlink:href="#aM"/><use transform="matrix(0.1111111111111111,0,0,0.1111111111111111,119.55555555555554,0)" xlink:href="#aP"/><use transform="matrix(0.1111111111111111,0,0,0.1111111111111111,143.88888888888889,0)" xlink:href="#aN"/><use transform="matrix(0.1111111111111111,0,0,0.1111111111111111,159.44444444444443,0)" xlink:href="#aK"/><use transform="matrix(0.1111111111111111,0,0,0.1111111111111111,181.66666666666666,0)" xlink:href="#aG"/><use transform="matrix(0.1111111111111111,0,0,0.1111111111111111,194.88888888888889,0)" xlink:href="#bh"/><use transform="matrix(0.1111111111111111,0,0,0.1111111111111111,206,0)" xlink:href="#aC"/><use transform="matrix(0.1111111111111111,0,0,0.1111111111111111,230.33333333333331,0)" xlink:href="#aL"/></g><use transform="matrix(0.09450530698728213,0,0,0.09450530698728213,0,0)" xlink:href="#aQ" id="x"/><path fill="#242424" d="M177-190C167-65 218 103 67 71c-23-6-38-20-44-43l32-5c15 47 100 32 89-28v-30C133-14 115 1 83 1 29 1 15-40 15-95c0-56 16-97 71-98 29-1 48 16 59 35 1-10 0-23 2-32h30zM94-22c36 0 50-32 50-73 0-42-14-75-50-75-39 0-46 34-46 75s6 73 46 73" id="bi"/><path fill="#242424" d="M-5 72V49h209v23H-5" id="bj"/><path fill="#242424" d="M96-169c-40 0-48 33-48 73s9 75 48 75c24 0 41-14 43-38l32 2c-6 37-31 61-74 61-59 0-76-41-82-99-10-93 101-131 147-64 4 7 5 14 7 22l-32 3c-4-21-16-35-41-35" id="bk"/><path fill="#242424" d="M117-194c89-4 53 116 60 194h-32v-121c0-31-8-49-39-48C34-167 62-67 57 0H25l-1-190h30c1 10-1 24 2 32 11-22 29-35 61-36" id="bl"/><path fill="#242424" d="M101-234c-31-9-42 10-38 44h38v23H63V0H32v-167H5v-23h27c-7-52 17-82 69-68v24" id="bm"/><path fill="#242424" d="M24-231v-30h32v30H24zM24 0v-190h32V0H24" id="bn"/><g id="y"><use transform="matrix(0.09450530698728213,0,0,0.09450530698728213,0,0)" xlink:href="#aR"/><use transform="matrix(0.09450530698728213,0,0,0.09450530698728213,9.450530698728214,0)" xlink:href="#bi"/><use transform="matrix(0.09450530698728213,0,0,0.09450530698728213,28.35159209618464,0)" xlink:href="#aW"/><use transform="matrix(0.09450530698728213,0,0,0.09450530698728213,47.25265349364106,0)" xlink:href="#bc"/><use transform="matrix(0.09450530698728213,0,0,0.09450530698728213,56.70318419236928,0)" xlink:href="#bj"/><use transform="matrix(0.09450530698728213,0,0,0.09450530698728213,75.60424558982571,0)" xlink:href="#bk"/><use transform="matrix(0.09450530698728213,0,0,0.09450530698728213,92.6152008475365,0)" xlink:href="#aT"/><use transform="matrix(0.09450530698728213,0,0,0.09450530698728213,111.51626224499293,0)" xlink:href="#bl"/><use transform="matrix(0.09450530698728213,0,0,0.09450530698728213,130.41732364244936,0)" xlink:href="#bm"/><use transform="matrix(0.09450530698728213,0,0,0.09450530698728213,139.86785434117758,0)" xlink:href="#bn"/><use transform="matrix(0.09450530698728213,0,0,0.09450530698728213,147.33377359317285,0)" xlink:href="#bi"/><use transform="matrix(0.09450530698728213,0,0,0.09450530698728213,166.23483499062928,0)" xlink:href="#aX"/><use transform="matrix(0.09450530698728213,0,0,0.09450530698728213,177.48096652211586,0)" xlink:href="#ba"/></g><path d="M115-194c53 0 69 39 70 98 0 66-23 100-70 100C84 3 66-7 56-30L54 0H23l1-261h32v101c10-23 28-34 59-34zm-8 174c40 0 45-34 45-75 0-40-5-75-45-74-42 0-51 32-51 76 0 43 10 73 51 73" id="bo"/><path d="M84 4C-5 8 30-112 23-190h32v120c0 31 7 50 39 49 72-2 45-101 50-169h31l1 190h-30c-1-10 1-25-2-33-11 22-28 36-60 37" id="bp"/><path d="M24-231v-30h32v30H24zM24 0v-190h32V0H24" id="bq"/><path d="M24 0v-261h32V0H24" id="br"/><path d="M85-194c31 0 48 13 60 33l-1-100h32l1 261h-30c-2-10 0-23-3-31C134-8 116 4 85 4 32 4 16-35 15-94c0-66 23-100 70-100zm9 24c-40 0-46 34-46 75 0 40 6 74 45 74 42 0 51-32 51-76 0-42-9-74-50-73" id="bs"/><g id="A"><use transform="matrix(0.11340636838473854,0,0,0.11340636838473854,0,0)" xlink:href="#bo"/><use transform="matrix(0.11340636838473854,0,0,0.11340636838473854,22.681273676947708,0)" xlink:href="#bp"/><use transform="matrix(0.11340636838473854,0,0,0.11340636838473854,45.362547353895415,0)" xlink:href="#bq"/><use transform="matrix(0.11340636838473854,0,0,0.11340636838473854,54.32165045628976,0)" xlink:href="#br"/><use transform="matrix(0.11340636838473854,0,0,0.11340636838473854,63.280753558684104,0)" xlink:href="#bs"/></g><path d="M141-36C126-15 110 5 73 4 37 3 15-17 15-53c-1-64 63-63 125-63 3-35-9-54-41-54-24 1-41 7-42 31l-33-3c5-37 33-52 76-52 45 0 72 20 72 64v82c-1 20 7 32 28 27v20c-31 9-61-2-59-35zM48-53c0 20 12 33 32 33 41-3 63-29 60-74-43 2-92-5-92 41" id="bt"/><path d="M117-194c89-4 53 116 60 194h-32v-121c0-31-8-49-39-48C34-167 62-67 57 0H25l-1-190h30c1 10-1 24 2 32 11-22 29-35 61-36" id="bu"/><g id="B"><use transform="matrix(0.11340636838473854,0,0,0.11340636838473854,0,0)" xlink:href="#bt"/><use transform="matrix(0.11340636838473854,0,0,0.11340636838473854,22.681273676947708,0)" xlink:href="#bu"/><use transform="matrix(0.11340636838473854,0,0,0.11340636838473854,45.362547353895415,0)" xlink:href="#bs"/></g><path d="M114-163C36-179 61-72 57 0H25l-1-190h30c1 12-1 29 2 39 6-27 23-49 58-41v29" id="bv"/><g id="C"><use transform="matrix(0.11340636838473854,0,0,0.11340636838473854,0,0)" xlink:href="#bv"/><use transform="matrix(0.11340636838473854,0,0,0.11340636838473854,13.495357837783887,0)" xlink:href="#bp"/><use transform="matrix(0.11340636838473854,0,0,0.11340636838473854,36.176631514731596,0)" xlink:href="#bu"/></g><path d="M59-47c-2 24 18 29 38 22v24C64 9 27 4 27-40v-127H5v-23h24l9-43h21v43h35v23H59v120" id="bw"/><path d="M106-169C34-169 62-67 57 0H25v-261h32l-1 103c12-21 28-36 61-36 89 0 53 116 60 194h-32v-121c2-32-8-49-39-48" id="bx"/><path d="M100-194c63 0 86 42 84 106H49c0 40 14 67 53 68 26 1 43-12 49-29l28 8c-11 28-37 45-77 45C44 4 14-33 15-96c1-61 26-98 85-98zm52 81c6-60-76-77-97-28-3 7-6 17-6 28h103" id="by"/><g id="D"><use transform="matrix(0.11340636838473854,0,0,0.11340636838473854,0,0)" xlink:href="#bw"/><use transform="matrix(0.11340636838473854,0,0,0.11340636838473854,11.340636838473854,0)" xlink:href="#bx"/><use transform="matrix(0.11340636838473854,0,0,0.11340636838473854,34.02191051542156,0)" xlink:href="#by"/></g><path d="M210-169c-67 3-38 105-44 169h-31v-121c0-29-5-50-35-48C34-165 62-65 56 0H25l-1-190h30c1 10-1 24 2 32 10-44 99-50 107 0 11-21 27-35 58-36 85-2 47 119 55 194h-31v-121c0-29-5-49-35-48" id="bz"/><path d="M100-194c62-1 85 37 85 99 1 63-27 99-86 99S16-35 15-95c0-66 28-99 85-99zM99-20c44 1 53-31 53-75 0-43-8-75-51-75s-53 32-53 75 10 74 51 75" id="bA"/><g id="E"><use transform="matrix(0.11340636838473854,0,0,0.11340636838473854,0,0)" xlink:href="#bz"/><use transform="matrix(0.11340636838473854,0,0,0.11340636838473854,33.90850414703682,0)" xlink:href="#bA"/><use transform="matrix(0.11340636838473854,0,0,0.11340636838473854,56.589777823984534,0)" xlink:href="#bs"/><use transform="matrix(0.11340636838473854,0,0,0.11340636838473854,79.27105150093224,0)" xlink:href="#by"/><use transform="matrix(0.11340636838473854,0,0,0.11340636838473854,101.95232517787996,0)" xlink:href="#br"/></g><path d="M108 0H70L1-190h34L89-25l56-165h34" id="bB"/><g id="F"><use transform="matrix(0.11340636838473854,0,0,0.11340636838473854,0,0)" xlink:href="#bv"/><use transform="matrix(0.11340636838473854,0,0,0.11340636838473854,13.495357837783887,0)" xlink:href="#by"/><use transform="matrix(0.11340636838473854,0,0,0.11340636838473854,36.176631514731596,0)" xlink:href="#bw"/><use transform="matrix(0.11340636838473854,0,0,0.11340636838473854,47.51726835320545,0)" xlink:href="#bv"/><use transform="matrix(0.11340636838473854,0,0,0.11340636838473854,61.01262619098934,0)" xlink:href="#bq"/><use transform="matrix(0.11340636838473854,0,0,0.11340636838473854,69.97172929338367,0)" xlink:href="#by"/><use transform="matrix(0.11340636838473854,0,0,0.11340636838473854,92.65300297033139,0)" xlink:href="#bB"/><use transform="matrix(0.11340636838473854,0,0,0.11340636838473854,113.06614927958432,0)" xlink:href="#by"/></g><path d="M135-143c-3-34-86-38-87 0 15 53 115 12 119 90S17 21 10-45l28-5c4 36 97 45 98 0-10-56-113-15-118-90-4-57 82-63 122-42 12 7 21 19 24 35" id="bC"/><g id="G"><use transform="matrix(0.11340636838473854,0,0,0.11340636838473854,0,0)" xlink:href="#bv"/><use transform="matrix(0.11340636838473854,0,0,0.11340636838473854,13.495357837783887,0)" xlink:href="#by"/><use transform="matrix(0.11340636838473854,0,0,0.11340636838473854,36.176631514731596,0)" xlink:href="#bC"/><use transform="matrix(0.11340636838473854,0,0,0.11340636838473854,56.589777823984534,0)" xlink:href="#bp"/><use transform="matrix(0.11340636838473854,0,0,0.11340636838473854,79.27105150093224,0)" xlink:href="#br"/><use transform="matrix(0.11340636838473854,0,0,0.11340636838473854,88.23015460332658,0)" xlink:href="#bw"/><use transform="matrix(0.11340636838473854,0,0,0.11340636838473854,99.57079144180044,0)" xlink:href="#bC"/></g><path fill="#242424" d="M230 0l2-204L168 0h-37L68-204 70 0H24v-248h70l56 185 57-185h69V0h-46" id="bD"/><g id="H"><use transform="matrix(0.1111111111111111,0,0,0.1111111111111111,0,0)" xlink:href="#bD"/><use transform="matrix(0.1111111111111111,0,0,0.1111111111111111,33.22222222222222,0)" xlink:href="#aC"/><use transform="matrix(0.1111111111111111,0,0,0.1111111111111111,57.55555555555555,0)" xlink:href="#aJ"/><use transform="matrix(0.1111111111111111,0,0,0.1111111111111111,81.88888888888889,0)" xlink:href="#aF"/><use transform="matrix(0.1111111111111111,0,0,0.1111111111111111,104.11111111111111,0)" xlink:href="#aD"/></g><path fill="#242424" d="M135-194c52 0 70 43 70 98 0 56-19 99-73 100-30 1-46-15-58-35L72 0H24l1-261h50v104c11-23 29-37 60-37zM114-30c31 0 40-27 40-66 0-37-7-63-39-63s-41 28-41 65c0 36 8 64 40 64" id="bE"/><path fill="#242424" d="M25-224v-37h50v37H25zM75 22c2 45-34 59-81 51V38c22 5 31-5 31-27v-201h50V22" id="bF"/><g id="I"><use transform="matrix(0.1111111111111111,0,0,0.1111111111111111,0,0)" xlink:href="#aC"/><use transform="matrix(0.1111111111111111,0,0,0.1111111111111111,24.333333333333332,0)" xlink:href="#bE"/><use transform="matrix(0.1111111111111111,0,0,0.1111111111111111,48.666666666666664,0)" xlink:href="#bF"/><use transform="matrix(0.1111111111111111,0,0,0.1111111111111111,59.77777777777777,0)" xlink:href="#aF"/><use transform="matrix(0.1111111111111111,0,0,0.1111111111111111,82,0)" xlink:href="#bf"/><use transform="matrix(0.1111111111111111,0,0,0.1111111111111111,104.22222222222223,0)" xlink:href="#aG"/></g><path fill="#242424" d="M115-194c55 1 70 41 70 98S169 2 115 4C84 4 66-9 55-30l1 105H24l-1-265h31l2 30c10-21 28-34 59-34zm-8 174c40 0 45-34 45-75s-6-73-45-74c-42 0-51 32-51 76 0 43 10 73 51 73" id="bG"/><path fill="#242424" d="M84 4C-5 8 30-112 23-190h32v120c0 31 7 50 39 49 72-2 45-101 50-169h31l1 190h-30c-1-10 1-25-2-33-11 22-28 36-60 37" id="bH"/><path fill="#242424" d="M141-36C126-15 110 5 73 4 37 3 15-17 15-53c-1-64 63-63 125-63 3-35-9-54-41-54-24 1-41 7-42 31l-33-3c5-37 33-52 76-52 45 0 72 20 72 64v82c-1 20 7 32 28 27v20c-31 9-61-2-59-35zM48-53c0 20 12 33 32 33 41-3 63-29 60-74-43 2-92-5-92 41" id="bI"/><g id="J"><use transform="matrix(0.09450530698728213,0,0,0.09450530698728213,0,0)" xlink:href="#bG"/><use transform="matrix(0.09450530698728213,0,0,0.09450530698728213,18.901061397456427,0)" xlink:href="#aT"/><use transform="matrix(0.09450530698728213,0,0,0.09450530698728213,37.802122794912854,0)" xlink:href="#bG"/><use transform="matrix(0.09450530698728213,0,0,0.09450530698728213,56.70318419236928,0)" xlink:href="#bH"/><use transform="matrix(0.09450530698728213,0,0,0.09450530698728213,75.60424558982571,0)" xlink:href="#aU"/><use transform="matrix(0.09450530698728213,0,0,0.09450530698728213,83.070164841821,0)" xlink:href="#bI"/><use transform="matrix(0.09450530698728213,0,0,0.09450530698728213,101.97122623927744,0)" xlink:href="#bc"/><use transform="matrix(0.09450530698728213,0,0,0.09450530698728213,111.42175693800566,0)" xlink:href="#aW"/><use transform="matrix(0.09450530698728213,0,0,0.09450530698728213,130.32281833546207,0)" xlink:href="#aZ"/></g><path fill="#242424" d="M206 0h-36l-40-164L89 0H53L-1-190h32L70-26l43-164h34l41 164 42-164h31" id="bJ"/><g id="K"><use transform="matrix(0.09450530698728213,0,0,0.09450530698728213,0,0)" xlink:href="#bJ"/><use transform="matrix(0.09450530698728213,0,0,0.09450530698728213,24.47687450970607,0)" xlink:href="#bn"/><use transform="matrix(0.09450530698728213,0,0,0.09450530698728213,31.94279376170136,0)" xlink:href="#bc"/><use transform="matrix(0.09450530698728213,0,0,0.09450530698728213,41.393324460429575,0)" xlink:href="#bd"/></g><g id="L"><use transform="matrix(0.09450530698728213,0,0,0.09450530698728213,0,0)" xlink:href="#aZ"/><use transform="matrix(0.09450530698728213,0,0,0.09450530698728213,18.901061397456427,0)" xlink:href="#bI"/><use transform="matrix(0.09450530698728213,0,0,0.09450530698728213,37.802122794912854,0)" xlink:href="#bc"/><use transform="matrix(0.09450530698728213,0,0,0.09450530698728213,47.25265349364107,0)" xlink:href="#bI"/></g><path fill="#242424" d="M114-163C36-179 61-72 57 0H25l-1-190h30c1 12-1 29 2 39 6-27 23-49 58-41v29" id="bK"/><g id="M"><use transform="matrix(0.09450530698728213,0,0,0.09450530698728213,0,0)" xlink:href="#bm"/><use transform="matrix(0.09450530698728213,0,0,0.09450530698728213,9.450530698728214,0)" xlink:href="#bK"/><use transform="matrix(0.09450530698728213,0,0,0.09450530698728213,20.696662230214788,0)" xlink:href="#aT"/><use transform="matrix(0.09450530698728213,0,0,0.09450530698728213,39.597723627671215,0)" xlink:href="#bb"/></g><g id="N"><use transform="matrix(0.09450530698728213,0,0,0.09450530698728213,0,0)" xlink:href="#bc"/><use transform="matrix(0.09450530698728213,0,0,0.09450530698728213,9.450530698728214,0)" xlink:href="#bd"/><use transform="matrix(0.09450530698728213,0,0,0.09450530698728213,28.35159209618464,0)" xlink:href="#aW"/></g><path fill="#242424" d="M115-194c53 0 69 39 70 98 0 66-23 100-70 100C84 3 66-7 56-30L54 0H23l1-261h32v101c10-23 28-34 59-34zm-8 174c40 0 45-34 45-75 0-40-5-75-45-74-42 0-51 32-51 76 0 43 10 73 51 73" id="bL"/><g id="O"><use transform="matrix(0.09450530698728213,0,0,0.09450530698728213,0,0)" xlink:href="#aZ"/><use transform="matrix(0.09450530698728213,0,0,0.09450530698728213,18.901061397456427,0)" xlink:href="#bI"/><use transform="matrix(0.09450530698728213,0,0,0.09450530698728213,37.802122794912854,0)" xlink:href="#bc"/><use transform="matrix(0.09450530698728213,0,0,0.09450530698728213,47.25265349364107,0)" xlink:href="#bI"/><use transform="matrix(0.09450530698728213,0,0,0.09450530698728213,66.1537148910975,0)" xlink:href="#bL"/><use transform="matrix(0.09450530698728213,0,0,0.09450530698728213,85.05477628855392,0)" xlink:href="#bI"/><use transform="matrix(0.09450530698728213,0,0,0.09450530698728213,103.95583768601037,0)" xlink:href="#aS"/><use transform="matrix(0.09450530698728213,0,0,0.09450530698728213,120.96679294372115,0)" xlink:href="#aW"/></g></defs></g></svg>